<?xml version="1.0" encoding="utf-8"?>
<!-- Generator: Adobe Illustrator 26.0.1, SVG Export Plug-In . SVG Version: 6.00 Build 0)  -->
<svg version="1.1" id="Calque_1" xmlns="http://www.w3.org/2000/svg" xmlns:xlink="http://www.w3.org/1999/xlink" x="0px" y="0px"
	 viewBox="0 0 145.7 39.4" style="enable-background:new 0 0 145.7 39.4;" xml:space="preserve">
<style type="text/css">
	.st0{fill:#B99E5E;}
	.st1{fill:#23423D;}
</style>
<path class="st0" d="M19.3,27.3c-4.2,0-9.9-4.8-6.6-9c0.7-1,1.8-1.6,3-1.7c1,0,2.7,0.6,2.6,1.9s-2,0.9-1.9,2.2s1.8,0.9,2.6,0.5
	c2.3-1.3,2-4.5,0-5.9c-2.2-1.4-5.1-1.2-7.2,0.4c-4.2,3.3-2.6,9.8,1.7,12.1c4.3,2.4,9.7,1.2,12.6-2.8c3-4.2,3.1-9.7,0.3-14
	C23.2,6.9,18,4.8,12.8,5.7c-5.9,1-10.4,5.7-12,11.4c-1.5,5.7,0,11.9,4.1,16.2c2.4,2.4,5.3,4.2,8.5,5.2c3,1,8,1,8,0.6l-4.3-0.4
	c-1.2-0.1-2.3-0.4-3.4-0.8c-0.4-0.2-2-0.6-2-1.2c0.7,0,3.1,1,3.6,0.6c0,0-2.1-0.9-2.2-0.9c2.1,0.4,2.7,0.7,2.7,0.5s-0.5-0.3-1-0.6
	s2.1,0.2,2.5,0.3c2.6,0.3,5.2-0.1,7.6-1c4.4-1.8,7.9-5.2,10-9.6c1.8-3.9,2.3-8.2,1.6-12.5c0-0.2-0.5-1.9-0.8-1.9
	c0,0,0.3,1.4,0.3,1.6c0.2,1.9,0.2,3.9-0.1,5.8c0,0.3-0.6,2.2-0.6,1.7c0-0.2-0.1-1.7-0.1-2s-0.2-3-0.4-3s0.5,3.7-0.4,5.6
	c0-3.4-0.2-4.7-0.2-5c-0.3-2.9-1.3-5.7-3-8c-1.6-2.3-3.6-4.3-6-5.8c-1.3-0.9-2.7-1.5-4.2-2c-0.7-0.2-1.4-0.4-2.1-0.5
	c-0.2,0-1.6-0.2-1.5-0.1c0.5,0.8,2.8,1.2,3.6,1.4c1.5,0.5,2.9,1.2,4.2,2c2.3,1.6,5.2,6.3,5.1,6.4s-0.9-1.2-1-1.1
	c0.8,1.3,1.4,2.8,1.8,4.3c0.6,2.4,0.7,4.9,0.3,7.4c-0.4,2.4-1.3,4.6-2.7,6.5c-0.3,0.5-1.6,1.4-1.1,0.8c1.2-1.5,2.1-3.2,2.8-5
	c1.6-4.3,1.1-10-1.8-13.6c0.7,0.7,0.4,0.3,0.1,0s-0.5-0.5-0.8-0.8c-0.5-0.5-1-0.9-1.5-1.3c-1.1-0.9-2.2-1.6-3.5-2.2
	c-2.6-1.3-5.4-1.9-8.3-1.7c-2.6,0.2-5,0.9-7.3,2.2C7,5.3,3.7,7.3,3.9,7.5c0.2,0.2,1.3-1,1.5-0.8C5.4,6.7,5,7,5,7.1
	c0.6-0.3,1.2-0.5,1.8-0.6c0,0.6-1.4,1.3-1.8,1.7c-1.3,1.2-2.4,2.6-3.3,4.2C0.3,15.3-0.2,17,0,17s1.6-3.6,2.2-4.6s1.2-1.9,2-2.7
	c2-2.1,4.6-3.6,7.4-4.4s5.7-0.7,8.5,0.1c1.6,0.5,3.2,1.2,4.6,2.1c0.3,0.2,3.4,2.6,2.6,2.9c-0.2,0.1-1.5-1.4-1.6-1.5s-1.5-1.2-1.8-1
	c0,0,1.2,0.8,1.4,1c1.2,1.2,2.2,2.7,2.9,4.3c1.4,3.5,1.3,7.5-0.2,11c-1,2.8-3.1,5-5.8,6c-1.8,0.6-3.7,0.8-5.6,0.4
	c-0.2,0-3.6-1.2-3.7-1.1c-0.2,0.3,2.5,1.3,2.6,1.4c1.6,0.5,3.4,0.6,5.1,0.3c1.5-0.3,3.1-0.8,4.5-1.4c-0.8,1-4.9,2-6.9,2
	c-1.6,0-3.1-0.3-4.6-0.9c-0.4-0.2-2.9-1.8-3.2-1.6c-0.2,0.1,0.4,0.6,0.4,0.7c-3-1.4-4.4-5.1-4.7-8.2c-0.1-1.2,0.1-2.4,0.5-3.5
	c0.1-0.2,0.9-2.9,0.9-2.9c-0.6-0.1-1.6,3.8-1.7,4.2c-0.5,2.2-0.3,4.4,0.6,6.5c0.8,1.9,2,3.5,3.6,4.8c0.8,0.7,1.6,1.3,2.5,1.7
	c1,0.5,2.1,0.8,3.2,1.1c2.2,0.5,8.4,0.1,11.9-2.4c1.7-1.2,3.2-2.7,4.3-4.4c0.6-0.8,1-1.7,1.4-2.6c0.2-0.5,0.1-0.8,0.5-1.2
	c0.4-0.3,0.1,0.4,0,0.5c-0.3,1.1-0.8,2.2-1.4,3.2c-1.1,1.9-2.5,3.5-4.1,4.8c-1.3,1.1-2.9,1.9-4.5,2.5c-0.3,0.1-3.4,1.1-3.2,0.8
	c1.9-0.5,3.7-1.3,5.5-2.2c-0.2,0-1.9,0.6-2.1,0.7c-1.2,0.4-2.4,0.6-3.7,0.8c-2.4,0.4-4.9,0.1-7.2-0.8c-2-0.8-3.8-2.1-5.2-3.7
	c-2.6-2.9-2.4-3.9-2.8-3.9c-0.4,0.1,1.1,3.2,0.4,2.5S4,24.4,3.9,23.7c-0.5-2.2-0.4-4.6,0.3-6.8c0.5-1.2,1-2.3,1.6-3.4
	c-1.1,1.1-2,2.4-2.4,3.9c-0.6,2.5-0.6,5.1-0.1,7.6C0.9,18,5,10.4,12,7.8c4.1-1.6,8.5-1.3,11.9,1.7c3,2.6,4.5,6.6,3.8,10.5
	C26.8,24,23.4,27,19.3,27.3"/>
<path class="st1" d="M43.7,28.9V18.3H42v-1.9h3.9v12.5H43.7z M44.9,11.7c0.4,0,0.7,0.1,1,0.4c0.5,0.5,0.5,1.4,0,1.9s-1.4,0.5-1.9,0
	s-0.5-1.4,0-1.9C44.2,11.9,44.5,11.7,44.9,11.7z"/>
<path class="st0" d="M53,28.9h-3.4v-17c2.2-0.1,3.6-0.1,4.2-0.1c2.1-0.1,4.2,0.7,5.7,2.2c1.4,1.6,2.2,3.6,2.1,5.8
	C61.5,25.8,58.7,28.9,53,28.9z M51.9,13.9v12.8c0.6,0.1,1.3,0.1,1.9,0.1c1.5,0.1,2.9-0.6,3.8-1.8c1-1.5,1.5-3.3,1.4-5.1
	c0-4-1.8-6-5.4-6C53.4,13.8,52.8,13.9,51.9,13.9L51.9,13.9z"/>
<path class="st0" d="M74.5,22.9h-9c-0.1,1.2,0.4,2.4,1.2,3.3c0.7,0.7,1.7,1,2.7,1c1.1,0.1,2.3-0.3,3.2-1l0.9,1.6
	c-0.5,0.4-1,0.7-1.6,0.9c-1,0.3-2,0.5-3,0.5c-1.5,0-2.9-0.5-4-1.6c-1.2-1.3-1.9-3-1.8-4.8C63,21,63.7,19.2,65,17.9
	c1-1.1,2.5-1.7,4-1.7c1.5-0.1,3,0.5,4.1,1.5c1,1,1.5,2.4,1.5,3.8C74.6,22,74.6,22.4,74.5,22.9z M69.2,18.1c-1.8,0-3.4,1.4-3.6,3.2
	h6.9c0-0.8-0.3-1.6-0.8-2.2C71,18.4,70.1,18,69.2,18.1z"/>
<path class="st0" d="M84,27.5c-1,1.2-2.5,1.8-4.1,1.7c-1,0-1.9-0.4-2.5-1.1c-0.7-0.7-1.1-1.7-1.1-2.7c0-1.3,0.6-2.5,1.7-3.2
	c1.2-0.9,2.7-1.4,4.2-1.3c0.5,0,1.1,0.1,1.6,0.3c0-2-0.9-3-2.7-3c-1.2-0.1-2.3,0.3-3.2,1.1L77,17.5c0.5-0.4,1.1-0.7,1.7-0.9
	c0.7-0.2,1.4-0.4,2.1-0.4c1.4-0.1,2.8,0.3,3.9,1.2c0.9,1.1,1.4,2.5,1.2,3.9v4.5c-0.1,0.9,0.3,1.7,1,2.2v1.1c-0.7,0-1.4-0.1-2-0.4
	C84.5,28.5,84.2,28,84,27.5z M83.8,22.8c-0.5-0.1-1-0.2-1.5-0.2c-1,0-2,0.3-2.7,0.9c-0.6,0.5-1,1.2-1.1,2c0,1.3,0.8,2,2.3,1.9
	c1.2,0,2.3-0.6,3-1.6L83.8,22.8z"/>
<path class="st0" d="M89.7,25.4v-14h2.2V25c0,0.6,0.2,1.1,0.6,1.6c0.4,0.4,0.9,0.6,1.5,0.6v2C91.1,29.1,89.7,27.9,89.7,25.4z"/>
<path class="st1" d="M108,29.1h-0.6l-3.6-8.5l-3.7,8.5h-0.6l-4.4-12.7h2.4l2.6,8.2l3.3-8.2h0.6l3.4,8.2l2.9-8.2h2.2L108,29.1z"/>
<path class="st1" d="M115.3,28.9V18.3h-1.7v-1.9h3.9v12.5H115.3z M116.5,11.7c0.8,0,1.4,0.6,1.4,1.4c0,0.8-0.6,1.4-1.4,1.4l0,0l0,0
	c-0.8,0-1.4-0.6-1.4-1.4c0-0.4,0.1-0.7,0.4-0.9C115.8,11.9,116.1,11.7,116.5,11.7z"/>
<path class="st1" d="M128.7,28.9v-7.3c0.1-1-0.1-1.9-0.6-2.8c-0.5-0.6-1.2-0.9-2-0.8c-0.6,0-1.1,0.2-1.6,0.5s-0.9,0.7-1.3,1.1v9.3
	H121V16.4h1.5l0.7,1.6c0.7-1.2,2.1-1.9,3.6-1.8c2.7,0,4.1,1.6,4.1,5v7.7L128.7,28.9z"/>
<path class="st1" d="M144.5,22.9h-9c-0.1,1.2,0.4,2.4,1.2,3.3c0.7,0.7,1.7,1,2.7,1c1.1,0.1,2.3-0.3,3.2-1l0.9,1.6
	c-0.5,0.4-1,0.7-1.6,0.9c-1,0.3-2,0.5-3,0.5c-1.5,0-2.9-0.5-4-1.6c-1.2-1.2-1.9-3-1.8-4.7c-0.1-1.9,0.6-3.7,2-5c1-1.1,2.5-1.7,4-1.7
	c1.5-0.1,3,0.4,4.2,1.5C144.6,19.1,145.1,21,144.5,22.9L144.5,22.9z M139.1,18.1c-1.8,0-3.4,1.4-3.6,3.2h6.9c0-0.8-0.3-1.6-0.8-2.2
	C141,18.4,140.1,18,139.1,18.1z"/>
</svg>
